<svg width="17" height="14" viewBox="0 0 17 14" fill="none" xmlns="http://www.w3.org/2000/svg">
<g id="language-11 1" clip-path="url(#clip0_2_615)">
<path id="Vector" d="M9.16255 12.3785C9.60964 12.3785 10.0503 12.3236 10.4845 12.2126C10.4164 12.1016 10.2983 12.0467 10.1363 12.1016C10.213 11.3244 10.2796 10.9365 10.5762 10.6034C10.7805 10.4376 10.8599 10.1593 10.6658 9.93728C10.5347 9.77141 10.2983 9.66039 10.1377 9.71523C9.80875 9.77007 9.98083 9.32732 9.69554 9.27114C9.41041 9.21629 8.95402 8.66118 8.54406 8.49397C8.30761 8.38295 8.05189 8.10606 7.71657 8.10606C7.43782 8.10606 7.02292 8.38295 6.99711 8.1609C6.91968 7.49476 6.81285 7.05067 6.78704 6.82862C6.76776 6.66276 6.6689 6.77378 7.11598 6.77378C7.33952 6.77378 7.17613 6.32969 7.39967 6.32969C7.62322 6.32969 8.15132 6.55173 8.25019 6.44071C8.35558 6.38587 9.37664 8.43913 9.18307 6.77378C9.15726 6.55173 9.00677 6.21866 9.09926 6.0528C9.3264 5.60871 9.54851 5.10977 9.7139 4.6095C9.48398 4.55465 9.20523 4.55465 8.98806 4.6095C8.88267 4.66434 9.06908 4.83154 8.9021 4.83154C8.35615 4.94257 7.82167 4.66568 7.95631 4.38745C8.09111 4.11056 8.78102 4.27643 8.77305 3.72131C8.78955 3.38824 8.75084 3.05517 8.71865 2.77828C9.45739 2.8893 9.29257 1.94627 8.31738 1.72423H8.03863C5.4679 1.72423 3.49552 3.5006 3.28216 5.99796C3.53151 6.22 3.92203 6.22 4.05818 5.94311C3.99659 5.88827 3.99659 5.88827 4.04527 5.83209C4.28809 5.99796 4.6234 5.99796 4.65574 6.27618C4.76536 7.21921 4.93671 8.21842 5.77567 8.21842C6.12388 8.32944 6.37961 8.60633 6.53009 8.9394C6.61112 9.16145 6.92062 8.9394 7.20072 8.9394C7.3677 8.9394 7.2329 9.21629 7.29743 9.77141C7.36195 10.3265 8.75625 11.2696 8.75625 11.2696C8.79497 11.6026 8.82715 11.8795 8.92108 12.2126C8.7541 12.2126 8.53055 12.2126 8.3686 12.2674C8.66026 12.3785 8.8838 12.3785 9.16255 12.3785ZM13.3663 5.27296C13.3663 5.27296 13.3111 5.27296 13.3047 5.21812C12.8662 4.32993 12.106 4.99607 12.4686 5.71705C11.0392 6.88213 11.5832 7.71547 12.1384 8.15957C12.4494 8.43646 12.7052 8.71468 12.9123 9.04775C12.7969 9.49185 13.4533 9.38082 13.8229 8.71468C13.982 8.15957 13.9663 7.54961 13.8952 6.93831L13.8372 6.43937C13.8243 6.32835 13.8114 6.21733 13.7498 6.16248C13.6673 5.9391 13.5168 5.60603 13.3663 5.27296Z" fill="white"/>
<path id="Vector_2" d="M9.27619 12.8713C6.03483 12.8713 3.10571 10.2629 2.73147 7.04326C2.35723 3.82358 4.67983 1.21387 7.92119 1.21387C11.1625 1.21387 14.0917 3.82225 14.4659 7.04192C14.8401 10.2616 12.5175 12.8713 9.27619 12.8713ZM7.98571 1.76898C5.07967 1.76898 2.95465 4.15532 3.29017 7.04192C3.62569 9.92853 6.30562 12.3162 9.21166 12.3162C12.1177 12.3162 14.2427 9.92987 13.9072 7.04326C13.5717 4.15665 10.8918 1.76898 7.98571 1.76898Z" fill="white"/>
</g>
<defs>
<clipPath id="clip0_2_615">
<rect width="13.7896" height="13.7896" fill="white" transform="matrix(1 0 0.115457 0.993312 0.908386 0.218384)"/>
</clipPath>
</defs>
</svg>
